<svg xmlns="http://www.w3.org/2000/svg" viewBox="0 0 32 32">
  <defs>
    <linearGradient id="shine" x1="0" y1="0" x2="1" y2="0">
      <stop offset="0%" stop-color="rgba(255,255,255,0)"/>
      <stop offset="40%" stop-color="rgba(255,255,255,0)"/>
      <stop offset="50%" stop-color="rgba(255,255,255,0.6)"/>
      <stop offset="60%" stop-color="rgba(255,255,255,0)"/>
      <stop offset="100%" stop-color="rgba(255,255,255,0)"/>
    </linearGradient>
    <clipPath id="clip">
      <rect width="32" height="32" rx="7"/>
    </clipPath>
  </defs>
  <rect width="32" height="32" rx="7" fill="#f8fafc"/>
  <rect width="32" height="32" rx="7" fill="none" stroke="#e2e8f0" stroke-width="1"/>
  <!-- S (gris oscuro / negro) -->
  <path d="M7 12.5C7 10.5 8.8 9 11 9c2 0 3.5 1 3.8 2.5h-2.2c-.3-.5-.9-.8-1.6-.8-1 0-1.8.7-1.8 1.7 0 .8.6 1.3 1.8 1.6l1 .3c2.2.5 3.2 1.5 3.2 3.2C15.2 19.5 13.3 21 11 21c-2.3 0-4-1.3-4.2-3.2h2.3c.2.8 1 1.4 1.9 1.4 1.1 0 1.9-.7 1.9-1.7 0-.9-.6-1.4-1.9-1.7l-1-.3C8 15 7 14 7 12.5z" fill="#1f2937"/>
  <!-- M (azul) -->
  <path d="M16.5 21V9.2h2.6l2.4 7.5 2.4-7.5H26.5V21h-2V13l-2.2 7h-1.6l-2.2-7v8z" fill="#2563eb"/>
  <!-- Reflejo animado con SMIL -->
  <g clip-path="url(#clip)">
    <rect x="-20" y="-5" width="16" height="42" fill="url(#shine)" transform="rotate(20)">
      <animateTransform attributeName="transform" type="translate" values="-20,0;52,0;52,0" keyTimes="0;0.4;1" dur="3s" repeatCount="indefinite"/>
    </rect>
  </g>
</svg>
